<svg xmlns="http://www.w3.org/2000/svg" xmlns:xlink="http://www.w3.org/1999/xlink" version="1.1" x="0px" y="0px" viewBox="0 0 100 125" enable-background="new 0 0 100 100" xml:space="preserve"><g><g><g><path d="M50,63.672c2.4,0,4.309,1.891,4.309,4.269c0,2.378-1.909,4.323-4.309,4.323c-2.455,0-4.364-1.945-4.364-4.323     C45.636,65.563,47.545,63.672,50,63.672z"/><path d="M54.091,37.3v18.32c0,2.27-1.855,4.053-4.091,4.053c-2.291,0-4.091-1.783-4.091-4.053V37.3     c0-2.216,1.8-4.053,4.091-4.053C52.236,33.247,54.091,35.085,54.091,37.3z"/><path d="M34.727,17.792c3.327-5.782,9.382-8.754,15.273-8.7c5.891-0.054,11.891,2.918,15.273,8.7L92.6,64.699     c1.636,2.81,2.4,5.836,2.4,8.754c0,4.593-1.855,8.917-4.964,12.159c-3.109,3.188-7.636,5.35-12.709,5.296H22.673     c-5.127,0.054-9.6-2.108-12.709-5.296C6.8,82.37,5,78.047,5,73.453c0-2.918,0.764-5.944,2.4-8.754H7.345L34.727,17.792z      M50,17.198c-3.273,0-6.327,1.513-8.182,4.647L14.436,68.752v0.054c-0.873,1.513-1.255,3.08-1.255,4.647     c0,2.378,0.982,4.81,2.673,6.539s3.982,2.81,6.818,2.81h54.655c2.836,0,5.073-1.081,6.818-2.81     c1.691-1.729,2.673-4.161,2.673-6.539c0-1.567-0.382-3.134-1.309-4.701L58.182,21.845C56.327,18.711,53.218,17.198,50,17.198z"/></g></g></g><text x="0" y="115" fill="#000000" font-size="5px" font-weight="bold" font-family="'Helvetica Neue', Helvetica, Arial-Unicode, Arial, Sans-serif">Created by Viktor Ostrovsky</text><text x="0" y="120" fill="#000000" font-size="5px" font-weight="bold" font-family="'Helvetica Neue', Helvetica, Arial-Unicode, Arial, Sans-serif">from the Noun Project</text></svg>